<svg width="54" height="46" viewBox="0 0 54 46" fill="none" xmlns="http://www.w3.org/2000/svg">
<g filter="url(#filter0_d)">
<path d="M18.9054 40.5941C35.4627 40.5941 44.5226 26.896 44.5226 15.0371C44.5226 14.6517 44.5226 14.2664 44.5051 13.881C46.2609 12.6198 47.7885 11.0258 49 9.22154C47.3846 9.93973 45.6464 10.4127 43.8203 10.6404C45.6815 9.53684 47.1037 7.76765 47.7885 5.66564C46.0502 6.69913 44.1188 7.43483 42.0645 7.83772C40.4141 6.08604 38.0788 5 35.4978 5C30.5289 5 26.4905 9.02886 26.4905 13.9861C26.4905 14.6868 26.5783 15.3699 26.7188 16.0356C19.239 15.6677 12.6021 12.0768 8.15986 6.64658C7.38731 7.97785 6.94836 9.51933 6.94836 11.1659C6.94836 14.2839 8.54614 17.034 10.9516 18.6456C9.47672 18.593 8.08963 18.1901 6.87812 17.5245C6.87812 17.5595 6.87812 17.5946 6.87812 17.6471C6.87812 21.9913 9.9859 25.6348 14.0945 26.458C13.3395 26.6682 12.5494 26.7733 11.7242 26.7733C11.1447 26.7733 10.5829 26.7208 10.0386 26.6157C11.1799 30.1891 14.5159 32.7816 18.4489 32.8517C15.3587 35.269 11.4783 36.7054 7.2644 36.7054C6.54452 36.7054 5.82464 36.6703 5.12231 36.5827C9.09044 39.1052 13.8311 40.5941 18.9054 40.5941Z" fill="#27A1F2"/>
</g>
<defs>
<filter id="filter0_d" x="0.122314" y="0" width="53.8776" height="45.5941" filterUnits="userSpaceOnUse" color-interpolation-filters="sRGB">
<feFlood flood-opacity="0" result="BackgroundImageFix"/>
<feColorMatrix in="SourceAlpha" type="matrix" values="0 0 0 0 0 0 0 0 0 0 0 0 0 0 0 0 0 0 127 0"/>
<feOffset/>
<feGaussianBlur stdDeviation="2.5"/>
<feColorMatrix type="matrix" values="0 0 0 0 0.152941 0 0 0 0 0.631373 0 0 0 0 0.94902 0 0 0 1 0"/>
<feBlend mode="normal" in2="BackgroundImageFix" result="effect1_dropShadow"/>
<feBlend mode="normal" in="SourceGraphic" in2="effect1_dropShadow" result="shape"/>
</filter>
</defs>
</svg>
