<svg xmlns="http://www.w3.org/2000/svg" viewBox="0 0 129.47 129.25"><defs><style>.cls-1{fill:#9f7b43;}.cls-2{fill:#fff;}</style></defs><g id="Layer_2" data-name="Layer 2"><g id="Layer_1-2" data-name="Layer 1"><path class="cls-1" d="M64.52,129.25A64.66,64.66,0,0,1,0,64.3C0,29,29.35,0,64.92,0c35.41,0,64.53,29.22,64.55,64.69C129.48,100.31,100.34,129.27,64.52,129.25ZM17.24,92.17h89.14c.58-5,.58-5-4.18-5A109.61,109.61,0,0,1,91,87a7.43,7.43,0,0,1-4.75-2.56C82.2,79,78.5,73.22,74.65,67.57c-2.55-3.74-6.12-4.65-10.1-2.54-3.07,1.61-6.15,3.2-9.16,4.92-3.46,2-6.88,3.26-10.81,1.09-1.92-1.06-3-.19-3.89,1.87-2.28,5.14-2.21,9.73,3.13,14.22-8.43,0-15.72,0-23,0C16.47,87.15,16.34,87.33,17.24,92.17ZM36.69,66.93,36,66.24c1.82-3,3.46-6.15,5.54-9,1.43-1.92,6.58-1.46,7.4.35,1.69,3.73,2.57,4,6.07,1.75,1.15-.73,2.27-1.52,3.43-2.24,2.7-1.7,4.31-4,2.94-7.17s-4.13-3.51-7.24-2.89c-4.86,1-9.81,1.63-14.61,2.83a6.43,6.43,0,0,0-3.8,3.23,124.09,124.09,0,0,0-5,13.25c-.86,2.68-2.75,3.32-5.07,3.49-4.66.33-9.34.47-14,.91-2.83.26-4.71,1.81-4.14,5,.48,2.59,2.95,3.73,5.91,2.52,4.55-1.84,9-4,13.47-6a15.32,15.32,0,0,1,3.57-.62,11.6,11.6,0,0,0,2.31-.37c2.17-.84,4.23-2,6.44-2.66,5.1-1.53,10.33-2.67,15.41-4.27C62.41,62,70,59.85,78.13,63c1.91.75,5-.22,7.05-1.34,4.89-2.67,9.45-6,14.22-8.87a6.47,6.47,0,0,1,3.41-.87c4.27.15,8.54.79,12.79.68,3.61-.1,6-3.72,5.23-7.14-.79-3.67-4.08-6.08-7.51-4.63C109,42.71,105,45.42,100.9,47.75c-.78.81-2.22.57-3.25,1.12-8,4.27-16.27,7.28-25.55,4.75-2.34-.64-3.65.1-4.42,2.53A5.28,5.28,0,0,1,65,59.23c-3.4,1.25-7,2.09-10.47,3C48.59,63.84,42.64,65.37,36.69,66.93ZM68.42,38.62a6.17,6.17,0,0,0-6.26,6,6.5,6.5,0,0,0,6.63,6.55,6.27,6.27,0,0,0,6-6.32A6.07,6.07,0,0,0,68.42,38.62Z"/><path class="cls-2" d="M17.24,92.17c-.9-4.84-.77-5,3.56-5,7.3,0,14.59,0,23,0-5.34-4.49-5.41-9.08-3.13-14.22.91-2.06,2-2.93,3.89-1.87,3.93,2.17,7.35.9,10.81-1.09,3-1.72,6.09-3.31,9.16-4.92,4-2.11,7.55-1.2,10.1,2.54C78.5,73.22,82.2,79,86.27,84.45A7.43,7.43,0,0,0,91,87a109.61,109.61,0,0,0,11.18.12c4.76,0,4.76,0,4.18,5Zm62.44-5.23L68.1,74.73,53.5,86.18l.48.76Z"/><path class="cls-2" d="M36.69,66.93c6-1.56,11.9-3.09,17.85-4.68,3.51-.93,7.07-1.77,10.47-3a5.28,5.28,0,0,0,2.67-3.08c.77-2.43,2.08-3.17,4.42-2.53,9.28,2.53,17.51-.48,25.55-4.75,1-.55,2.47-.31,3.25-1.12,4.13-2.33,8.09-5,12.42-6.88,3.43-1.45,6.72,1,7.51,4.63.74,3.42-1.62,7-5.23,7.14-4.25.11-8.52-.53-12.79-.68a6.47,6.47,0,0,0-3.41.87c-4.77,2.91-9.33,6.2-14.22,8.87-2,1.12-5.14,2.09-7.05,1.34C70,59.85,62.41,62,54.7,64.41c-5.08,1.6-10.31,2.74-15.41,4.27-2.21.66-4.27,1.82-6.44,2.66a11.6,11.6,0,0,1-2.31.37,15.32,15.32,0,0,0-3.57.62c-4.52,1.92-8.92,4.11-13.47,6-3,1.21-5.43.07-5.91-2.52-.57-3.16,1.31-4.71,4.14-5,4.66-.44,9.34-.58,14-.91,2.32-.17,4.21-.81,5.07-3.49a124.09,124.09,0,0,1,5-13.25,6.43,6.43,0,0,1,3.8-3.23c4.8-1.2,9.75-1.86,14.61-2.83,3.11-.62,5.88-.3,7.24,2.89s-.24,5.47-2.94,7.17c-1.16.72-2.28,1.51-3.43,2.24-3.5,2.24-4.38,2-6.07-1.75-.82-1.81-6-2.27-7.4-.35-2.08,2.81-3.72,6-5.54,9Z"/><path class="cls-2" d="M68.42,38.62a6.07,6.07,0,0,1,6.33,6.24,6.27,6.27,0,0,1-6,6.32,6.5,6.5,0,0,1-6.63-6.55A6.17,6.17,0,0,1,68.42,38.62Z"/><path class="cls-1" d="M79.68,86.94H54l-.48-.76L68.1,74.73Z"/></g></g></svg>