<svg xmlns="http://www.w3.org/2000/svg" viewBox="0 0 129.48 129.2"><defs><style>.cls-1{fill:#9f7a42;}.cls-2{fill:#fff;}</style></defs><g id="Layer_2" data-name="Layer 2"><g id="Layer_1-2" data-name="Layer 1"><path class="cls-1" d="M64.51,129.2A64.66,64.66,0,0,1,0,64.27C.05,29,29.36,0,64.94,0c35.39,0,64.53,29.25,64.54,64.69C129.49,100.29,100.34,129.23,64.51,129.2Zm9.82-64.65a27.56,27.56,0,0,0-2.69.82c-2.38,1-5,3.35-7,2.86-2.16-.54-3.81-3.57-5.44-5.7-1.36-1.78-2.6-1.92-4.38-.68-2.65,1.85-5.44,3.49-8.1,5.32-4.21,2.91-9.12,4.43-13.15,8-4.49,4-10.27,6.46-15.5,9.59-2.26,1.35-3.91,3-2.71,6.14,1-.31,1.78-.52,2.56-.85C26.61,86.43,35.36,82.89,44,79.12a8.53,8.53,0,0,1,7.11,0c4.49,1.8,9.09,3.33,13.63,5,3,1.11,5.43.28,6.2-2.77C72.3,76,73.17,70.48,74.33,64.55Zm17.2,4.85c.21-1.5.26-2.35.45-3.17.82-3.5,1.89-7,2.46-10.49.8-5-2.93-7.94-7.55-6.16a39.36,39.36,0,0,0-7.37,3.54,4.54,4.54,0,0,0-1.81,3.6c.15,1.06,1.73,2,2.8,2.84a8,8,0,0,0,2.35.68c0,4.46.06,8.79,0,13.12,0,2.23.53,3.1,3,2.68,6.23-1.05,12.54-1.68,18.77-2.78,1.2-.22,2.16-1.82,3.23-2.78l-.68-1.08ZM55.44,46.88l.3,1.42c1.39-.06,3,.26,4.14-.27A52.75,52.75,0,0,0,67,44c2-1.3,3.67-1.25,5.73.17,5.47,3.76,9.09,3.54,15.19-.73C82.17,40.86,76.72,38.36,71.21,36a2.88,2.88,0,0,0-2.41.37C64.3,39.81,59.88,43.36,55.44,46.88Zm42.89-.43a6.2,6.2,0,0,0,6.4,6.21,6.45,6.45,0,0,0,6.14-6.6,6.54,6.54,0,0,0-6.51-6.25A6.32,6.32,0,0,0,98.33,46.45Z"/><path class="cls-2" d="M74.33,64.55C73.17,70.48,72.3,76,71,81.31c-.77,3-3.19,3.88-6.2,2.77-4.54-1.67-9.14-3.2-13.63-5a8.53,8.53,0,0,0-7.11,0C35.36,82.89,26.61,86.43,17.88,90c-.78.33-1.6.54-2.56.85-1.2-3.16.45-4.79,2.71-6.14,5.23-3.13,11-5.63,15.5-9.59,4-3.56,8.94-5.08,13.15-8,2.66-1.83,5.45-3.47,8.1-5.32,1.78-1.24,3-1.1,4.38.68,1.63,2.13,3.28,5.16,5.44,5.7,2,.49,4.66-1.82,7-2.86A27.56,27.56,0,0,1,74.33,64.55Z"/><path class="cls-2" d="M91.53,69.4h15.65l.68,1.08c-1.07,1-2,2.56-3.23,2.78C98.4,74.36,92.09,75,85.86,76c-2.5.42-3.07-.45-3-2.68.09-4.33,0-8.66,0-13.12a8,8,0,0,1-2.35-.68c-1.07-.83-2.65-1.78-2.8-2.84a4.54,4.54,0,0,1,1.81-3.6,39.36,39.36,0,0,1,7.37-3.54c4.62-1.78,8.35,1.21,7.55,6.16-.57,3.54-1.64,7-2.46,10.49C91.79,67.05,91.74,67.9,91.53,69.4Z"/><path class="cls-2" d="M55.44,46.88c4.44-3.52,8.86-7.07,13.36-10.52A2.88,2.88,0,0,1,71.21,36c5.51,2.37,11,4.87,16.67,7.44-6.1,4.27-9.72,4.49-15.19.73C70.63,42.74,69,42.69,67,44a52.75,52.75,0,0,1-7.08,4c-1.18.53-2.75.21-4.14.27Z"/><path class="cls-2" d="M98.33,46.45a6.32,6.32,0,0,1,6-6.64,6.54,6.54,0,0,1,6.51,6.25,6.45,6.45,0,0,1-6.14,6.6A6.2,6.2,0,0,1,98.33,46.45Z"/></g></g></svg>