<svg xmlns="http://www.w3.org/2000/svg" viewBox="0 0 129.53 129.81"><defs><style>.cls-1{fill:#9e7a42;}.cls-2{fill:#fff;}.cls-3{fill:#fefdfd;}</style></defs><g id="Layer_2" data-name="Layer 2"><g id="Layer_1-2" data-name="Layer 1"><path class="cls-1" d="M64.65,129.81A64.82,64.82,0,0,1,0,64.68C0,29.18,29.3,0,64.85,0s64.77,29.43,64.68,65.25A64.94,64.94,0,0,1,64.65,129.81ZM44.65,89c7.48-4.82,15.52-9,22.26-14.67s12.51-13.17,18.57-20c.75-.84,1.45-2.83,1-3.39a4.74,4.74,0,0,0-3.63-1.56c-4,.31-7.89,1-11.82,1.59-10.41,1.56-21,2.28-30.69,7.11-1.73.87-3.84,1-5.77,1.43A21.41,21.41,0,0,1,41,56.2c3.4-1.27,3.95-3.33,1.6-6.12a7.09,7.09,0,0,0-10.28-.87c-3.39,3-3.36,7.69.34,11.58-2.33.8-4.8,1.15-6.65,2.42-2.22,1.52-5.2,3.58-5.6,5.81-1.17,6.47-1.34,13.14-1.58,19.75A5.06,5.06,0,0,0,21,92.63c.91.49,2.93-.21,4-1a19.86,19.86,0,0,0,8.3-14.87c.19-2.59,1.35-3.71,3.52-4.57,8.32-3.29,16.59-6.73,24.91-10,2.16-.86,4.44-1.38,6.67-2.06a2.8,2.8,0,0,1-1.22,2C61,66.28,54.72,70.37,48.59,74.6a5.56,5.56,0,0,0-2.28,3.05c-.74,3.76-1.11,7.6-1.61,11.42l-.13.11Zm51-42.77a7.44,7.44,0,1,0,14.87,0,7.44,7.44,0,0,0-14.87,0Z"/><path class="cls-2" d="M44.7,89.06c.5-3.81.87-7.65,1.61-11.41a5.56,5.56,0,0,1,2.28-3.05C54.72,70.37,61,66.28,67.15,62.12a2.8,2.8,0,0,0,1.22-2c-2.23.68-4.51,1.2-6.67,2.06-8.32,3.29-16.59,6.73-24.91,10-2.17.86-3.33,2-3.52,4.57A19.86,19.86,0,0,1,25,91.62c-1.06.8-3.08,1.5-4,1a5.06,5.06,0,0,1-2.16-3.86c.24-6.61.41-13.28,1.58-19.75.4-2.23,3.38-4.29,5.6-5.81,1.85-1.27,4.32-1.62,6.65-2.42-3.7-3.89-3.73-8.53-.34-11.58a7.09,7.09,0,0,1,10.28.87c2.35,2.79,1.8,4.85-1.6,6.12a21.41,21.41,0,0,0-6.4,3.37c1.93-.46,4-.56,5.77-1.43,9.69-4.83,20.28-5.55,30.69-7.11,3.93-.59,7.86-1.28,11.82-1.59A4.74,4.74,0,0,1,86.5,51c.43.56-.27,2.55-1,3.39-6.06,6.79-11.69,14.13-18.57,20S52.13,84.2,44.65,89Z"/><path class="cls-2" d="M95.61,46.25a7.44,7.44,0,0,1,14.87,0,7.44,7.44,0,1,1-14.87,0Z"/><polygon class="cls-3" points="44.66 89.02 44.56 89.18 44.7 89.06 44.66 89.02"/></g></g></svg>