<svg xmlns="http://www.w3.org/2000/svg" viewBox="0 0 129.46 129.25"><defs><style>.cls-1{fill:#054005;}.cls-2{fill:#fff;}</style></defs><g id="Layer_2" data-name="Layer 2"><g id="Layer_1-2" data-name="Layer 1"><path class="cls-1" d="M64.57,129.25a64.63,64.63,0,1,1,64.89-64.1C129.42,100.51,100.31,129.27,64.57,129.25Zm49.12-72.49c-5.77-5.11-6.37-5.31-12-2.19a97.63,97.63,0,0,0-10.89,7C87,64.32,83.85,68,79.89,70.41A211.17,211.17,0,0,1,56.22,83.22c-5.33,2.36-7.8,6.45-10.72,11.54,1.86.89,3.79,2.67,5.13,2.3a46.53,46.53,0,0,0,11.64-4.74c12.44-7.47,24.83-15,36.9-23.08C104.41,65.75,108.81,61,113.69,56.76Zm-27.17,5L97,53.26C86.34,49,76,46.37,66,55.69c-.46-3.71-1.34-6.5,2.78-6.87-.29-5.41-2.73-8.6-7.46-10-5.57-1.66-11.15-3.29-16.68-5.08-2.59-.84-5-2.2-7.61-2.95-1-.29-3,.07-3.42.8s-.08,2.6.56,3.52a9.54,9.54,0,0,0,3.46,2.74c4.75,2.4,9.54,4.73,14.38,6.93,1.71.77,2.58,1.51,2.1,3.61-.75,3.21-1.13,6.51-1.75,10.31,7.93-1.81,9.36,4.76,12.58,9.51C71.13,61.52,77,54.29,86.52,61.73ZM65.69,75.85c-2.12-4.23-4-8.84-6.71-12.94-.91-1.4-4-2.42-5.66-2s-4.07,2.7-4.25,4.37c-.71,6.36,4.2,10.23,7.64,14.7,2.83-1.16,5.66-2.31,8.48-3.48C65.29,76.46,65.34,76.31,65.69,75.85ZM33.52,56.77l-.86-.88c-3.21,3.53-6.79,6.8-9.55,10.66-4.29,6-7.45,12.58-6.19,20.43S24.71,100.18,32,99.22c.55-.07,1-.58,1.85-1.06-11-3.3-14.37-12.75-12.73-20.22a48.34,48.34,0,0,1,5.45-13.12C28.29,61.79,31.16,59.43,33.52,56.77ZM66.39,38.84a7.14,7.14,0,0,0,7.26-7.29,7.44,7.44,0,0,0-7.31-7.4c-3.86,0-7.52,3.56-7.41,7.4C59.06,36.32,61.88,38.75,66.39,38.84Zm41.89,56.63a8.52,8.52,0,1,0,0-17,8.52,8.52,0,1,0,0,17ZM88.7,104.66a7.18,7.18,0,0,0,7.36-7.19A7.4,7.4,0,0,0,88.49,90a7.3,7.3,0,0,0-7.13,7.48A7.1,7.1,0,0,0,88.7,104.66Zm-13.9-4.21c-.38-4.09-1.25-5.13-7.35-5.56-2.76-.2-4.92,2.38-4.94,5.63a6.15,6.15,0,1,0,12.29-.07ZM36,92.51c-8.34-2.67-8.73-10.27-10.69-17.89C22.13,86.42,26.74,93.86,36,92.51ZM74.68,71.85c1.67-1.81,4-3.25,4-4.63a7.72,7.72,0,0,0-3.12-5.43c-.73-.5-3.28,1.69-5.2,2.77C71.86,67.07,73,69,74.68,71.85Z"/><path class="cls-2" d="M113.69,56.76c-4.88,4.25-9.28,9-14.52,12.48-12.07,8-24.46,15.61-36.9,23.08a46.53,46.53,0,0,1-11.64,4.74c-1.34.37-3.27-1.41-5.13-2.3,2.92-5.09,5.39-9.18,10.72-11.54A211.17,211.17,0,0,0,79.89,70.41c4-2.4,7.11-6.09,10.86-8.87a97.63,97.63,0,0,1,10.89-7C107.32,51.45,107.92,51.65,113.69,56.76Z"/><path class="cls-2" d="M86.52,61.73C77,54.29,71.13,61.52,64.9,68.19c-3.22-4.75-4.65-11.32-12.58-9.51.62-3.8,1-7.1,1.75-10.31.48-2.1-.39-2.84-2.1-3.61-4.84-2.2-9.63-4.53-14.38-6.93a9.54,9.54,0,0,1-3.46-2.74c-.64-.92-1.05-2.73-.56-3.52S36,30.48,37,30.77c2.6.75,5,2.11,7.61,2.95,5.53,1.79,11.11,3.42,16.68,5.08,4.73,1.42,7.17,4.61,7.46,10C64.62,49.19,65.5,52,66,55.69,76,46.37,86.34,49,97,53.26Z"/><path class="cls-2" d="M65.69,75.85c-.35.46-.4.61-.5.65-2.82,1.17-5.65,2.32-8.48,3.48-3.44-4.47-8.35-8.34-7.64-14.7.18-1.67,2.51-4,4.25-4.37s4.75.6,5.66,2C61.66,67,63.57,71.62,65.69,75.85Z"/><path class="cls-2" d="M33.52,56.77c-2.36,2.66-5.23,5-6.94,8a48.34,48.34,0,0,0-5.45,13.12c-1.64,7.47,1.69,16.92,12.73,20.22-.81.48-1.3,1-1.85,1.06-7.3,1-13.85-4.47-15.09-12.24s1.9-14.41,6.19-20.43c2.76-3.86,6.34-7.13,9.55-10.66Z"/><path class="cls-2" d="M66.39,38.84c-4.51-.09-7.33-2.52-7.46-7.29-.11-3.84,3.55-7.39,7.41-7.4a7.44,7.44,0,0,1,7.31,7.4A7.14,7.14,0,0,1,66.39,38.84Z"/><path class="cls-2" d="M108.28,95.47a8.52,8.52,0,1,1,0-17,8.52,8.52,0,1,1,0,17Zm5.77-8.36a5.55,5.55,0,0,0-5.61-5.7,5.55,5.55,0,1,0-.29,11.1A5.54,5.54,0,0,0,114.05,87.11Z"/><path class="cls-2" d="M88.7,104.66a7.1,7.1,0,0,1-7.34-7.17A7.3,7.3,0,0,1,88.49,90a7.4,7.4,0,0,1,7.57,7.46A7.18,7.18,0,0,1,88.7,104.66Zm4.9-7.25a5,5,0,0,0-5.07-4.88,4.69,4.69,0,0,0-4.68,4.83c0,2.83,1.79,4.58,4.62,4.87C91,102.5,93.59,99.94,93.6,97.41Z"/><path class="cls-2" d="M74.8,100.45a6.15,6.15,0,1,1-12.29.07c0-3.25,2.18-5.83,4.94-5.63C73.55,95.32,74.42,96.36,74.8,100.45Zm-6.91,4.71c3.43-.8,4.8-2.19,4.78-4.66a3.7,3.7,0,0,0-4-4c-2.59,0-4.45,1.62-3.92,4.24C65.13,102.35,66.82,103.69,67.89,105.16Z"/><path class="cls-2" d="M36,92.51c-9.27,1.35-13.88-6.09-10.69-17.89C27.28,82.24,27.67,89.84,36,92.51Z"/><path class="cls-2" d="M74.68,71.85C73,69,71.86,67.07,70.37,64.56c1.92-1.08,4.47-3.27,5.2-2.77a7.72,7.72,0,0,1,3.12,5.43C78.72,68.6,76.35,70,74.68,71.85Z"/><path class="cls-1" d="M114.05,87.11a5.54,5.54,0,0,1-5.9,5.4,5.55,5.55,0,1,1,.29-11.1A5.55,5.55,0,0,1,114.05,87.11Z"/><path class="cls-1" d="M93.6,97.41c0,2.53-2.59,5.09-5.13,4.82-2.83-.29-4.66-2-4.62-4.87a4.69,4.69,0,0,1,4.68-4.83A5,5,0,0,1,93.6,97.41Z"/><path class="cls-1" d="M67.89,105.16c-1.07-1.47-2.76-2.81-3.09-4.42-.53-2.62,1.33-4.23,3.92-4.24a3.7,3.7,0,0,1,4,4C72.69,103,71.32,104.36,67.89,105.16Z"/></g></g></svg>