<svg xmlns="http://www.w3.org/2000/svg" viewBox="0 0 129.56 129.23"><defs><style>.cls-1{fill:#9f7a42;}.cls-2{fill:#fff;}</style></defs><g id="Layer_2" data-name="Layer 2"><g id="Layer_1-2" data-name="Layer 1"><path class="cls-1" d="M64.82,129.23A64.69,64.69,0,0,1,0,64.55C0,29.14,29.21,0,64.7,0a65,65,0,0,1,64.86,64.8C129.53,100.24,100.41,129.22,64.82,129.23ZM79.07,92.47A20.76,20.76,0,0,1,80.32,89c3.9-6.18,7.78-12.37,11.88-18.41a11.67,11.67,0,0,1,4.15-3.3c2.63-1.43,4.49-3.22,4-6.43-.48-2.91-3.38-4.86-6.69-4.67a51,51,0,0,0-6.31.52,28.41,28.41,0,0,0-4.55,1.68c.66,1.52,1.26,3.07,2,4.56.5,1,1.91,2.35,1.64,3-1.61,3.57-3.6,7-5.46,10.42l-1-.48c.2-1.63.39-3.26.59-4.85-5.12-1.45-5.25-1.35-5.74,3.57-.28,2.84-.63,5.68-1,8.51-1.17,9.44-1.18,9.44-10.55,9.44H48.06v5.2c.45.24.67.45.88.45,14.42,0,28.84.07,43.26.15,2.14,0,2.35-1.16,2.41-2.85.07-2-.44-3-2.67-3C87.88,92.54,83.8,92.47,79.07,92.47ZM16.8,33.54a14.08,14.08,0,0,0,1.57,1.78C24.08,39.93,29.5,45,35.61,49c9.33,6.12,19.1,11.57,28.78,17.14,1.06.61,3.57.74,3.91.18,1.73-2.84,3.75-5.92,4-9,.12-1.43-3.52-3.3-5.64-4.69-1-.63-2.36-.54-3.54-.86C60.4,51,57.46,50.62,55,49.34c-10-5.22-20-10.67-29.86-16.16C22.38,31.65,19.85,31.3,16.8,33.54ZM115.28,63.8a6.66,6.66,0,0,0-6.82-6.41,6.31,6.31,0,0,0-6.18,6.55,6.58,6.58,0,0,0,6.3,6.49A7,7,0,0,0,115.28,63.8Z"/><path class="cls-2" d="M79.07,92.47c4.73,0,8.81.07,12.87,0,2.23,0,2.74,1,2.67,3-.06,1.69-.27,2.86-2.41,2.85-14.42-.08-28.84-.1-43.26-.15-.21,0-.43-.21-.88-.45v-5.2H63.23c9.37,0,9.38,0,10.55-9.44.35-2.83.7-5.67,1-8.51.49-4.92.62-5,5.74-3.57-.2,1.59-.39,3.22-.59,4.85l1,.48c1.86-3.46,3.85-6.85,5.46-10.42.27-.61-1.14-1.92-1.64-3-.72-1.49-1.32-3-2-4.56a28.41,28.41,0,0,1,4.55-1.68,51,51,0,0,1,6.31-.52c3.31-.19,6.21,1.76,6.69,4.67.53,3.21-1.33,5-4,6.43a11.67,11.67,0,0,0-4.15,3.3c-4.1,6-8,12.23-11.88,18.41A20.76,20.76,0,0,0,79.07,92.47Z"/><path class="cls-2" d="M16.8,33.54c3.05-2.24,5.58-1.89,8.35-.36C35.05,38.67,45,44.12,55,49.34c2.45,1.28,5.39,1.64,8.11,2.37,1.18.32,2.59.23,3.54.86,2.12,1.39,5.76,3.26,5.64,4.69-.25,3.12-2.27,6.2-4,9-.34.56-2.85.43-3.91-.18C54.71,60.55,44.94,55.1,35.61,49c-6.11-4-11.53-9-17.24-13.66A14.08,14.08,0,0,1,16.8,33.54Z"/><path class="cls-2" d="M115.28,63.8a7,7,0,0,1-6.7,6.63,6.58,6.58,0,0,1-6.3-6.49,6.31,6.31,0,0,1,6.18-6.55A6.66,6.66,0,0,1,115.28,63.8Z"/></g></g></svg>