<svg xmlns="http://www.w3.org/2000/svg" viewBox="0 0 129.46 129.28"><defs><style>.cls-1{fill:#054005;}.cls-2{fill:#fff;}.cls-3{fill:#fdfdfd;}</style></defs><g id="Layer_2" data-name="Layer 2"><g id="Layer_1-2" data-name="Layer 1"><path class="cls-1" d="M64.62,129.28A64.73,64.73,0,0,1,0,64.44C.09,29,29.25,0,64.72,0a64.75,64.75,0,0,1,64.74,65.1C129.42,100.49,100.34,129.29,64.62,129.28ZM47.77,61.68l.45.56.1-.19-.64-.3L38.3,55.52c8.93-1,16.93-2,25-2.74a3.6,3.6,0,0,1,3,1.34C68,57.36,69.38,60.77,70.86,64c-3.62,1.93-7,3.44-10.11,5.49-1.64,1.09-3.62,3-3.79,4.71-.66,6.71,1.54,13,4.62,18.85.52,1,2.78,1.56,4.12,1.4.79-.09,1.82-2,1.91-3.14A21,21,0,0,0,67,85.42c-1.8-8.34-1.77-8.2,6-11.94,2.67-1.3,4.17-1,5.71,1.49,5.47,9,14.68,12.63,24,15.94,1.27.45,3.1-.67,4.67-1.07-.42-1.54-.37-3.6-1.37-4.53a25.91,25.91,0,0,0-7.11-4.67C92.53,77.89,88.94,73,86.66,66.83c-1-2.79-2.13-5.56-3.39-8.25-2.52-5.38-5.11-10.73-7.83-16-1.11-2.16-2.54-2.69-4.63-.59a9.3,9.3,0,0,1-5.07,2.75c-10.76,1.2-21.44,0-32.33-1.25L36.8,29.9l-1.18-.48A14.16,14.16,0,0,0,34,31.51c-2.23,4.19-4,8.71-6.68,12.58-4,5.8-4.67,11.27-.72,17.29,1.21,1.83,1.71,4.11,2.6,6.16,2,4.55,4,9.07,6,13.61l1.14-.33c-1.05-6.88-2.11-13.77-3.17-20.76ZM71,34.77a7.59,7.59,0,1,0-7.68,7.43A7.4,7.4,0,0,0,71,34.77Zm35.5,65.63c-7.61-5.69-15.3-6.28-23.16-1.6C90.41,106.05,98.27,104,106.49,100.4Zm-18,4.67c-7.13-6.83-14.78-5.09-22.63-1.2C73,109.49,81.82,109.88,88.47,105.07Zm-39.9,4.18c3.68,1.65,7,4.32,10.21,4.3,4.37,0,8.74-2.12,13.34-3.39C64.52,104.25,57.33,103.89,48.57,109.25ZM59,103.08c-6.36-5.77-14.6-6.06-21.28-1.19C44.18,109.57,51.47,105.37,59,103.08Zm-13.09-7C39.46,88.15,32,92.5,24.53,93.91,30.48,100.11,38.26,100.81,45.91,96.1Zm45-2.61c-6.49-6-13.45-3.87-20.44-1.19C75.61,97.45,83.76,97.92,90.91,93.49ZM75.18,97.93c-4.54-3-4.49-2.85-9.28-.92a4.82,4.82,0,0,1-4-.41c-2.78-2.16-4.93-.82-7.44.47C61.64,102.35,70,102.64,75.18,97.93Zm-33-7.81c8.87,5.9,7.91,6.09,16,2.67-1.18-2-.22-5.7-4.26-5.13C50.23,88.18,46.55,89.18,42.17,90.12ZM38.39,40.61l12.07-15C45,29.1,37.85,31.26,38.39,40.61Zm42,5,4.85,11.16C89.94,52.51,90.13,51.29,80.43,45.56ZM77.59,88.17l.32-1.06-8.52-3.52,1,6.32ZM46.26,72.43l.84-.83-6.3-7.09-2,3Z"/><path class="cls-2" d="M47.77,61.68,33.14,60.06c1.06,7,2.12,13.88,3.17,20.76l-1.14.33c-2-4.54-4-9.06-6-13.61-.89-2.05-1.39-4.33-2.6-6.16-3.95-6-3.31-11.49.72-17.29C30,40.22,31.74,35.7,34,31.51a14.16,14.16,0,0,1,1.65-2.09l1.18.48L33.41,43.48C44.3,44.69,55,45.93,65.74,44.73A9.3,9.3,0,0,0,70.81,42c2.09-2.1,3.52-1.57,4.63.59,2.72,5.28,5.31,10.63,7.83,16,1.26,2.69,2.36,5.46,3.39,8.25C88.94,73,92.53,77.89,98.81,80.64a25.91,25.91,0,0,1,7.11,4.67c1,.93,1,3,1.37,4.53-1.57.4-3.4,1.52-4.67,1.07C93.34,87.6,84.13,84,78.66,75c-1.54-2.54-3-2.79-5.71-1.49-7.77,3.74-7.8,3.6-6,11.94a21,21,0,0,1,.66,5.87c-.09,1.15-1.12,3-1.91,3.14-1.34.16-3.6-.42-4.12-1.4C58.5,87.17,56.3,80.89,57,74.18c.17-1.7,2.15-3.62,3.79-4.71,3.07-2,6.49-3.56,10.11-5.49-1.48-3.21-2.91-6.62-4.66-9.86a3.6,3.6,0,0,0-3-1.34c-8,.77-16,1.73-25,2.74l9.38,6.23Z"/><path class="cls-2" d="M71,34.77a7.4,7.4,0,0,1-7.68,7.43A7.67,7.67,0,1,1,71,34.77Z"/><path class="cls-2" d="M106.49,100.4c-8.22,3.57-16.08,5.65-23.16-1.6C91.19,94.12,98.88,94.71,106.49,100.4Z"/><path class="cls-2" d="M88.47,105.07c-6.65,4.81-15.46,4.42-22.63-1.2C73.69,100,81.34,98.24,88.47,105.07Z"/><path class="cls-2" d="M48.57,109.25c8.76-5.36,15.95-5,23.55.91-4.6,1.27-9,3.36-13.34,3.39C55.52,113.57,52.25,110.9,48.57,109.25Z"/><path class="cls-2" d="M59,103.08c-7.53,2.29-14.82,6.49-21.28-1.19C44.4,97,52.64,97.31,59,103.08Z"/><path class="cls-2" d="M45.91,96.1c-7.65,4.71-15.43,4-21.38-2.19C32,92.5,39.46,88.15,45.91,96.1Z"/><path class="cls-2" d="M90.91,93.49c-7.15,4.43-15.3,4-20.44-1.19C77.46,89.62,84.42,87.52,90.91,93.49Z"/><path class="cls-2" d="M75.18,97.93c-5.18,4.71-13.54,4.42-20.76-.86,2.51-1.29,4.66-2.63,7.44-.47a4.82,4.82,0,0,0,4,.41C70.69,95.08,70.64,95,75.18,97.93Z"/><path class="cls-2" d="M42.17,90.12c4.38-.94,8.06-1.94,11.79-2.46,4-.57,3.08,3.16,4.26,5.13C50.08,96.21,51,96,42.17,90.12Z"/><path class="cls-2" d="M38.39,40.61c-.54-9.35,6.57-11.51,12.07-15Z"/><path class="cls-2" d="M80.43,45.56c9.7,5.73,9.51,6.95,4.85,11.16Z"/><path class="cls-2" d="M77.59,88.17l-7.2,1.74-1-6.32,8.52,3.52Z"/><path class="cls-2" d="M46.26,72.43l-7.42-5,2-3,6.3,7.09Z"/><path class="cls-3" d="M47.68,61.75l.64.3-.1.19-.45-.56Z"/></g></g></svg>