<svg xmlns="http://www.w3.org/2000/svg" viewBox="0 0 129.5 129.19"><defs><style>.cls-1{fill:#9e7a42;}.cls-2{fill:#fff;}</style></defs><g id="Layer_2" data-name="Layer 2"><g id="Layer_1-2" data-name="Layer 1"><path class="cls-1" d="M64.74,129.19A64.68,64.68,0,0,1,0,64.47C0,29.1,29.24,0,64.74,0s64.77,29.16,64.76,64.47A64.77,64.77,0,0,1,64.74,129.19ZM107,47.84V46.38a16.67,16.67,0,0,0-3.3-.62c-15.42,0-30.85.15-46.27.19-2.12,0-3.46.55-3.17,2.92.35,2.72-1.2,3-3.37,3-6.09.06-12.18.21-18.26.51-5.16.25-7.36,2.64-8,7.93-1.06,8.87-2.1,17.75-3.39,26.6-.38,2.6.32,3.35,2.81,3.31,6.34-.09,12.68,0,19,0,8.39,0,8.39,0,8.28-8.45-.11-9.07-.11-9.07,8.77-9.08a6.09,6.09,0,0,1,.74,0c2.71.41,4.38-.74,5.63-3.17,2.31-4.54,5-8.87,7.26-13.44,1.27-2.57,2.82-3.69,5.77-3.48,2,.14,5,.12,5.83-1.06,2.29-3.06,5.08-3.07,8.24-3,3.35.09,6.71.08,10.07,0A19.36,19.36,0,0,0,107,47.84Zm-66.39,3v0H44c4,0,5.24-1.46,4.76-5.41a8.07,8.07,0,0,0-7.34-7.22A8.26,8.26,0,0,0,33.17,44c-1.5,4.47.17,6.83,4.86,6.86Z"/><path class="cls-2" d="M107,47.84a19.36,19.36,0,0,1-3.31.65c-3.36.09-6.72.1-10.07,0-3.16-.08-6-.07-8.24,3-.88,1.18-3.86,1.2-5.83,1.06-2.95-.21-4.5.91-5.77,3.48-2.25,4.57-5,8.9-7.26,13.44-1.25,2.43-2.92,3.58-5.63,3.17a6.09,6.09,0,0,0-.74,0c-8.88,0-8.88,0-8.77,9.08.11,8.45.11,8.45-8.28,8.45-6.35,0-12.69-.06-19,0-2.49,0-3.19-.71-2.81-3.31,1.29-8.85,2.33-17.73,3.39-26.6.63-5.29,2.83-7.68,8-7.93,6.08-.3,12.17-.45,18.26-.51,2.17,0,3.72-.26,3.37-3C54,46.5,55.34,46,57.46,46c15.42,0,30.85-.15,46.27-.19a16.67,16.67,0,0,1,3.3.62ZM52.34,61.66c3,.64,6,2.21,7.19,1.34,3.69-2.67,6.69-6.27,10.15-9.71C61.17,50.41,57.59,56.33,52.34,61.66Z"/><path class="cls-2" d="M40.63,50.82H38c-4.69,0-6.36-2.39-4.86-6.86a8.26,8.26,0,0,1,8.23-5.75,8.07,8.07,0,0,1,7.34,7.22c.48,4-.77,5.38-4.76,5.41H40.63Z"/><path class="cls-1" d="M52.34,61.66c5.25-5.33,8.83-11.25,17.34-8.37-3.46,3.44-6.46,7-10.15,9.71C58.34,63.87,55.37,62.3,52.34,61.66Z"/></g></g></svg>