<svg xmlns="http://www.w3.org/2000/svg" viewBox="0 0 129.51 129.27"><defs><style>.cls-1{fill:#033e03;}.cls-2{fill:#fff;}</style></defs><g id="Layer_2" data-name="Layer 2"><g id="Layer_1-2" data-name="Layer 1"><path class="cls-1" d="M64.75,129.27A64.74,64.74,0,0,1,0,64.53C.05,29,29.27,0,65,0s64.5,29.15,64.48,65C129.49,100.44,100.44,129.27,64.75,129.27Zm-16-64.05c-1.79,4.59-3.13,9-5.23,13a9.38,9.38,0,0,1-5.27,4.44c-3.54.9-7.44.34-11,1.09-1.65.34-3.83,2.08-4.26,3.61-.72,2.58,1.4,4.17,3.93,4.27,5.2.21,10.41.18,15.62.19,4.62,0,7.47-2.83,10-6.28,1.8-2.46,3.54-6.45,5.73-6.76,2.63-.37,5.71,2.42,8.6,3.86.44.22.81.6,1.27.78,3.58,1.42,4.17,3.94,3.26,7.48a107.11,107.11,0,0,0-2.59,13.52c-.39,3.2,2.09,5,5,3.8a7.24,7.24,0,0,0,3.56-3.49,87.24,87.24,0,0,0,4.94-14c.7-3,1.25-7.56-.39-9.27-4-4.18-8.92-9-14.19-10.08C61.14,70,54.58,69.58,48.79,65.22ZM79.09,43a25,25,0,0,0-2.41-3C74.47,38,72.77,36,69.3,39c-4.44,3.86-7.82,3.14-12.66-.55-.81-.62-2.85-.88-3.44-.34-1.86,1.7-4.42,3.72-4.69,5.87a67.66,67.66,0,0,0,.05,15.45c.2,1.93,1.94,4.07,3.56,5.41C57.47,69.29,64,68.69,70.33,68.2c.77-.06,2.07-1.9,1.93-2.72a4.17,4.17,0,0,0-2.45-2.74c-2-.67-4.15-.66-6.23-1-6.13-1-8.45-4.52-7.81-11.56.4-4.29,4.28-7.23,9.52-7.22Zm3.27,7c-3.74-6.67-10-5.24-15.87-5.3l-1.12,0c-4.51.17-7.74,3.17-7.9,7.32s2.47,7.44,7.13,7.69C71,60.05,78,61.77,82.33,54.64l3.61,2.5V47.05ZM70.9,31.37a7.4,7.4,0,0,0-7.52-7.47A7.86,7.86,0,0,0,56,31.29a7.57,7.57,0,0,0,7.53,7.53A7.11,7.11,0,0,0,70.9,31.37Zm47.3,21.7,0-1.8c-1.45-1-3-2.79-4.33-2.61A5.56,5.56,0,0,0,110,52.15a3.23,3.23,0,0,0,3.88,3.79C115.46,55.69,116.78,54.07,118.2,53.07Zm-19.79,3.6,1.75-.05c.92-1.47,2.39-2.85,2.64-4.43.38-2.3-1.27-3.71-3.63-3.72-2.57,0-4.2,1.54-3.74,4C95.72,54,97.37,55.27,98.41,56.67ZM76.78,62.4c1.82,2.54,4,3.43,6.23,1.24,1.84-1.84,1.15-3.91-.86-5.49Z"/><path class="cls-2" d="M48.79,65.22c5.79,4.36,12.35,4.8,18.91,6.16,5.27,1.1,10.19,5.9,14.19,10.08,1.64,1.71,1.09,6.27.39,9.27a87.24,87.24,0,0,1-4.94,14,7.24,7.24,0,0,1-3.56,3.49c-2.92,1.23-5.4-.6-5-3.8A107.11,107.11,0,0,1,71.36,90.9c.91-3.54.32-6.06-3.26-7.48-.46-.18-.83-.56-1.27-.78-2.89-1.44-6-4.23-8.6-3.86-2.19.31-3.93,4.3-5.73,6.76-2.5,3.45-5.35,6.28-10,6.28-5.21,0-10.42,0-15.62-.19-2.53-.1-4.65-1.69-3.93-4.27.43-1.53,2.61-3.27,4.26-3.61,3.61-.75,7.51-.19,11.05-1.09a9.38,9.38,0,0,0,5.27-4.44C45.66,74.21,47,69.81,48.79,65.22Z"/><path class="cls-2" d="M79.09,43H65.29c-5.24,0-9.12,2.93-9.52,7.22-.64,7,1.68,10.51,7.81,11.56,2.08.36,4.26.35,6.23,1a4.17,4.17,0,0,1,2.45,2.74c.14.82-1.16,2.66-1.93,2.72-6.33.49-12.86,1.09-18.21-3.34-1.62-1.34-3.36-3.48-3.56-5.41A67.66,67.66,0,0,1,48.51,44c.27-2.15,2.83-4.17,4.69-5.87.59-.54,2.63-.28,3.44.34,4.84,3.69,8.22,4.41,12.66.55,3.47-3,5.17-1,7.38.9A25,25,0,0,1,79.09,43Z"/><path class="cls-2" d="M82.36,50l3.58-2.93V57.14l-3.61-2.5C78,61.77,71,60.05,64.6,59.71c-4.66-.25-7.29-3.43-7.13-7.69s3.39-7.15,7.9-7.32l1.12,0C72.33,44.74,78.62,43.31,82.36,50ZM66.71,46.57c.39,3.43,4.5,4.16,11.77,2.58C75.11,45.07,70.79,47.51,66.71,46.57Z"/><path class="cls-2" d="M70.9,31.37a7.11,7.11,0,0,1-7.41,7.45A7.57,7.57,0,0,1,56,31.29a7.86,7.86,0,0,1,7.42-7.39A7.4,7.4,0,0,1,70.9,31.37Z"/><path class="cls-2" d="M118.2,53.07c-1.42,1-2.74,2.62-4.29,2.87A3.23,3.23,0,0,1,110,52.15a5.56,5.56,0,0,1,3.82-3.49c1.3-.18,2.88,1.66,4.33,2.61Z"/><path class="cls-2" d="M98.41,56.67c-1-1.4-2.69-2.69-3-4.23-.46-2.43,1.17-4,3.74-4,2.36,0,4,1.42,3.63,3.72-.25,1.58-1.72,3-2.64,4.43Z"/><path class="cls-2" d="M76.78,62.4l5.37-4.25c2,1.58,2.7,3.65.86,5.49C80.83,65.83,78.6,64.94,76.78,62.4Z"/><path class="cls-1" d="M66.71,46.57c4.08.94,8.4-1.5,11.77,2.58C71.21,50.73,67.1,50,66.71,46.57Z"/></g></g></svg>