<svg xmlns="http://www.w3.org/2000/svg" viewBox="0 0 129.5 129.83"><defs><style>.cls-1{fill:#9f7a42;}.cls-2{fill:#fff;}</style></defs><g id="Layer_2" data-name="Layer 2"><g id="Layer_1-2" data-name="Layer 1"><path class="cls-1" d="M64.65,129.83A64.82,64.82,0,0,1,0,64.71C0,29.19,29.29,0,64.82,0s64.77,29.42,64.68,65.24A64.94,64.94,0,0,1,64.65,129.83Zm19.09-33.1V84.19L101,67.85c-5-6.53-9.94-12.77-14.69-19.15a7,7,0,0,0-6.64-3.21c-3,.2-6,0-9.53,0,4.19-6.06,4.29-9.62.89-12.79a7.53,7.53,0,0,0-9.9-.33c-3.46,2.88-3.52,6.81.3,13.13-3.4,0-6.33-.17-9.23.07-1.49.12-3.46.52-4.29,1.55-5.59,7-10.93,14.15-16.56,21.53l17.7,15.58V96.73Z"/><path class="cls-2" d="M83.74,96.73H49.06V84.27L31.36,68.69c5.63-7.38,11-14.55,16.56-21.53.83-1,2.8-1.43,4.29-1.55,2.9-.24,5.83-.07,9.23-.07-3.82-6.32-3.76-10.25-.3-13.13a7.53,7.53,0,0,1,9.9.33c3.4,3.17,3.3,6.73-.89,12.79,3.52,0,6.54.16,9.53,0a7,7,0,0,1,6.64,3.21C91.07,55.08,96,61.32,101,67.85L83.74,84.19ZM71.56,49.35,66.64,70h-.9C64,63.15,62.17,56.27,60.4,49.46H51.19c-4.63,6.17-9.23,12.32-14,18.73l5.25,4.69L48,68.65l5.1,10.22H79.24c1.5-3.45,2.91-6.7,4.44-10.2l6.1,4.41,5.86-6.43-14-17.3ZM80,85.12H52.92v7.54H80Z"/><path class="cls-1" d="M71.56,49.35h10l14,17.3-5.86,6.43-6.1-4.41c-1.53,3.5-2.94,6.75-4.44,10.2H53.09L48,68.65l-5.57,4.23-5.25-4.69c4.79-6.41,9.39-12.56,14-18.73H60.4C62.17,56.27,64,63.15,65.74,70h.9Z"/><path class="cls-1" d="M80,85.12v7.54H52.92V85.12Z"/></g></g></svg>