<svg xmlns="http://www.w3.org/2000/svg" viewBox="0 0 129.51 129.15"><defs><style>.cls-1{fill:#9e7a42;}.cls-2{fill:#fff;}</style></defs><g id="Layer_2" data-name="Layer 2"><g id="Layer_1-2" data-name="Layer 1"><path class="cls-1" d="M64.64,129.15A64.66,64.66,0,0,1,0,64.36C0,29,29.3,0,64.84,0a65,65,0,0,1,64.67,64.93C129.42,100.32,100.29,129.16,64.64,129.15ZM35.26,72.2c6.49,9.79,12.67,9.93,20.91.57,2.17,3.86,4.95,6.76,9.78,6.79s7.47-3.15,9.88-6.71a33.14,33.14,0,0,0,3.27,4.26c2.8,2.63,6.47,2.16,8.69-.93A8.52,8.52,0,0,0,86.64,65a7.87,7.87,0,0,0-10.57-.1,76.42,76.42,0,0,0-5.38,5.73c-.14-1.48-.51-2.38-.24-3A21.6,21.6,0,0,1,73,63.19c3.12-4.18,7.15-7.6,13.27-6,5.41,1.4,10.83,2.71,16.25,4.08,1.57.4,3.24,1.12,3.9-1.25.55-2,.51-3.47-1.89-4.44C95.6,52,86.81,48.23,78,44.62c-.93-.38-2.4-.67-3.09-.21C68,49,60.54,53,56.36,60.75a7.18,7.18,0,0,1-3.78,3.07c-5.54,1.79-11.2,3.23-16.81,4.82C29.38,70.45,23,72.28,16.31,74.19a9.12,9.12,0,0,0,8.35,5.32C29.8,79.74,33,76.84,35.26,72.2Z"/><path class="cls-2" d="M35.26,72.2c-2.3,4.64-5.46,7.54-10.6,7.31a9.12,9.12,0,0,1-8.35-5.32c6.68-1.91,13.07-3.74,19.46-5.55,5.61-1.59,11.27-3,16.81-4.82a7.18,7.18,0,0,0,3.78-3.07C60.54,53,68,49,74.86,44.41c.69-.46,2.16-.17,3.09.21C86.81,48.23,95.6,52,104.48,55.55c2.4,1,2.44,2.47,1.89,4.44-.66,2.37-2.33,1.65-3.9,1.25-5.42-1.37-10.84-2.68-16.25-4.08C80.1,55.59,76.07,59,73,63.19a21.6,21.6,0,0,0-2.5,4.42c-.27.63.1,1.53.24,3a76.42,76.42,0,0,1,5.38-5.73,7.87,7.87,0,0,1,10.57.1,8.52,8.52,0,0,1,1.15,11.19c-2.22,3.09-5.89,3.56-8.69.93a33.14,33.14,0,0,1-3.27-4.26c-2.41,3.56-5,6.75-9.88,6.71s-7.61-2.93-9.78-6.79C47.93,82.13,41.75,82,35.26,72.2Z"/></g></g></svg>