<svg width="108" height="108" viewBox="0 0 108 108" fill="none" xmlns="http://www.w3.org/2000/svg">
<circle cx="54" cy="54" r="51.5" stroke="white" stroke-width="5"/>
<path fill-rule="evenodd" clip-rule="evenodd" d="M83.0402 42.1922C91.2661 51.9678 91.9944 65.9079 85.2251 76.421C86.8433 79.1285 86.4864 82.6875 84.1545 85.0194C81.7335 87.4404 77.9897 87.7325 75.2495 85.8958C64.9053 91.8189 51.6823 90.832 42.2974 82.935C41.2348 82.0409 41.2401 80.438 42.2221 79.456L49.8551 71.823L49.8551 53.8988L45.1855 49.2291C44.8582 48.9018 44.8582 48.3711 45.1855 48.0438L45.1855 48.0437L42.9547 45.8129C42.2654 45.8511 41.5633 45.6069 41.0367 45.0803L39.8513 43.895C39.524 43.5676 39.524 43.0369 39.8513 42.7096L42.2221 40.3389C42.5494 40.0115 43.0801 40.0115 43.4074 40.3389L44.5928 41.5242C45.1194 42.0508 45.3636 42.7529 45.3254 43.4422L47.5562 45.673C47.8836 45.3457 48.4143 45.3457 48.7416 45.673L53.2918 50.2233L71.4548 50.2233L79.5612 42.1169C80.5432 41.1349 82.1461 41.1296 83.0402 42.1922ZM55.8064 52.7378L62.3733 59.3048L68.9403 52.7378L55.8064 52.7378ZM58.8172 62.8609L52.3697 56.4133L52.3697 69.3084L58.8172 62.8609Z" fill="white"/>
<path d="M33.2634 58.7491C26.0622 51.5478 25.9295 40.0049 32.9671 32.9673C40.0047 25.9297 51.5476 26.0624 58.7489 33.2637" stroke="white" stroke-width="4.19091" stroke-linecap="round"/>
<path d="M26.1512 65.8611C15.022 54.7318 14.8893 36.8205 25.8549 25.8549C36.8205 14.8893 54.7318 15.022 65.8611 26.1512" stroke="white" stroke-width="4.19091" stroke-linecap="round"/>
</svg>
