<svg width="108" height="108" viewBox="0 0 108 108" fill="none" xmlns="http://www.w3.org/2000/svg">
<circle cx="54" cy="54" r="51.5" stroke="white" stroke-width="5"/>
<path d="M57.6668 19H36.056C35.1647 19 34.624 19.9834 35.1015 20.7361L50.9178 45.6639C51.3953 46.4166 50.8546 47.4 49.9633 47.4H37.6275C36.6447 47.4 36.13 48.5677 36.7931 49.2931L70.3177 85.9713C71.1455 86.877 72.6208 86.0002 72.2208 84.8401L61.9565 55.0729C61.7033 54.3388 62.2487 53.5739 63.0251 53.5739L70.0379 53.5739C70.8305 53.5739 71.377 52.7795 71.0936 52.0393L58.7225 19.7263C58.555 19.2888 58.1352 19 57.6668 19Z" fill="white"/>
</svg>
