<svg width="108" height="108" viewBox="0 0 108 108" fill="none" xmlns="http://www.w3.org/2000/svg">
<circle cx="54" cy="54" r="51.5" stroke="white" stroke-width="5"/>
<path fill-rule="evenodd" clip-rule="evenodd" d="M55.2302 21.8263C54.4595 20.4973 52.5405 20.4973 51.7698 21.8263L23.0035 71.435C22.2303 72.7684 23.1923 74.4383 24.7336 74.4383H82.2664C83.8077 74.4383 84.7697 72.7684 83.9966 71.435L55.2302 21.8263ZM55.4839 13.1404C54.6022 11.6199 52.3978 11.6199 51.5161 13.1404L15.3103 75.5787C14.4286 77.0993 15.5308 79 17.2942 79H89.7058C91.4693 79 92.5714 77.0993 91.6897 75.5787L55.4839 13.1404Z" fill="white"/>
<path d="M55.6843 59.2532C55.6371 60.2313 54.8304 61 53.8512 61L53.1488 61C52.1696 61 51.3629 60.2313 51.3157 59.2532L50.0929 33.9238C50.0423 32.8767 50.8777 32 51.926 32L55.074 32C56.1223 32 56.9577 32.8767 56.9071 33.9238L55.6843 59.2532Z" fill="white"/>
<path d="M51 65.8353C51 64.8217 51.8217 64 52.8353 64H54.1647C55.1783 64 56 64.8217 56 65.8353V69.1647C56 70.1783 55.1783 71 54.1647 71H52.8353C51.8217 71 51 70.1783 51 69.1647V65.8353Z" fill="white"/>
</svg>
