<svg width="108" height="108" viewBox="0 0 108 108" fill="none" xmlns="http://www.w3.org/2000/svg">
<circle cx="54" cy="54" r="51.5" stroke="white" stroke-width="5"/>
<path d="M53.0036 18.3943C53.3559 17.7778 54.2448 17.7778 54.5971 18.3943L66.3873 39.0272C66.5485 39.3093 66.5485 39.6557 66.3873 39.9378L54.5971 60.5707C54.2448 61.1872 53.3559 61.1872 53.0036 60.5707L41.2133 39.9378C41.0521 39.6557 41.0521 39.3093 41.2133 39.0272L53.0036 18.3943Z" fill="white"/>
<path d="M14.2327 41.4428C13.8749 40.8295 14.3194 40.0597 15.0294 40.0628L38.7932 40.1687C39.1181 40.1701 39.418 40.3433 39.5818 40.6239L51.5553 61.151C51.913 61.7644 51.4686 62.5342 50.7585 62.531L26.9948 62.4252C26.6699 62.4238 26.3699 62.2506 26.2062 61.9699L14.2327 41.4428Z" fill="white"/>
<path d="M92.9705 40.0628C93.6806 40.0596 94.125 40.8295 93.7673 41.4428L81.7938 61.9699C81.6301 62.2506 81.3301 62.4237 81.0052 62.4252L57.2415 62.531C56.5314 62.5341 56.0869 61.7643 56.4447 61.151L68.4182 40.6239C68.5819 40.3432 68.8819 40.17 69.2068 40.1686L92.9705 40.0628Z" fill="white"/>
<path d="M50.9331 64.596C50.9974 63.632 51.7981 62.8828 52.7644 62.8828H54.8362C55.8025 62.8828 56.6032 63.632 56.6675 64.596L58.2581 88.455C58.3287 89.5143 57.4885 90.4124 56.4268 90.4124H51.1738C50.1121 90.4124 49.2719 89.5143 49.3425 88.455L50.9331 64.596Z" fill="white"/>
</svg>
