<svg width="108" height="108" viewBox="0 0 108 108" fill="none" xmlns="http://www.w3.org/2000/svg">
<circle cx="54" cy="54" r="51.5" stroke="white" stroke-width="5"/>
<circle cx="54" cy="54" r="17" fill="white"/>
<path d="M54 12L60.0622 30.75H47.9378L54 12Z" fill="white"/>
<path d="M83.6985 24.3016L74.7269 41.8464L66.1537 33.2732L83.6985 24.3016Z" fill="white"/>
<path d="M96 54L77.25 60.0622L77.25 47.9378L96 54Z" fill="white"/>
<path d="M83.6985 83.6985L66.1536 74.7269L74.7269 66.1537L83.6985 83.6985Z" fill="white"/>
<path d="M54 96L47.9378 77.25L60.0622 77.25L54 96Z" fill="white"/>
<path d="M24.3015 83.6984L33.2731 66.1536L41.8463 74.7268L24.3015 83.6984Z" fill="white"/>
<path d="M12 54L30.75 47.9378L30.75 60.0622L12 54Z" fill="white"/>
<path d="M24.3016 24.3015L41.8464 33.2731L33.2732 41.8463L24.3016 24.3015Z" fill="white"/>
</svg>
