<svg width="108" height="108" viewBox="0 0 108 108" fill="none" xmlns="http://www.w3.org/2000/svg">
<circle cx="54" cy="54" r="51.5" stroke="white" stroke-width="5"/>
<path fill-rule="evenodd" clip-rule="evenodd" d="M61.1659 16.6747C58.8452 16.2318 56.4497 16 54 16C43.5886 16 34.1551 20.1871 27.2916 26.9692C27.3645 27.0474 27.4297 27.1351 27.4854 27.2316L39.4686 47.9871C40.2341 49.313 42.5071 48.9926 43.2726 47.6667L61.1659 16.6747ZM25.2616 29.1374C19.4912 35.8014 16 44.493 16 54C16 57.404 16.4476 60.7034 17.2871 63.8427C17.4125 63.807 17.5448 63.7879 17.6816 63.7879L41.6464 63.7879C43.1763 63.7879 44.0376 61.6584 43.2726 60.3334L25.2616 29.1374ZM18.1623 66.6667C22.3265 78.4484 32.136 87.5633 44.3406 90.7614C44.3674 90.6917 44.4 90.6232 44.4385 90.5564L56.4217 69.801C57.1872 68.4751 55.7733 66.6667 54.2423 66.6667L18.1623 66.6667ZM47.272 91.4062C49.4558 91.7964 51.7041 92 54 92C64.554 92 74.103 87.6975 80.9889 80.7507L69.0168 60.0146C68.2518 58.6896 65.9769 59.0085 65.212 60.3334L47.272 91.4062ZM83.0277 78.5246C88.6252 71.9059 92 63.3471 92 54C92 50.6158 91.5576 47.335 90.7275 44.2122L66.8383 44.2122C65.3083 44.2122 64.447 46.3418 65.212 47.6668L83.0277 78.5246ZM89.8377 41.3334L54.2423 41.3334C52.7113 41.3334 51.2974 39.5251 52.0628 38.1992L64.046 17.4437C64.0629 17.4145 64.0787 17.3849 64.0933 17.355C76.0963 20.6536 85.723 29.6916 89.8377 41.3334Z" fill="white"/>
</svg>
